<mxfile host="Electron" agent="Mozilla/5.0 (Windows NT 10.0; Win64; x64) AppleWebKit/537.36 (KHTML, like Gecko) draw.io/26.1.1 Chrome/132.0.6834.210 Electron/34.3.3 Safari/537.36" version="26.1.1">
  <diagram name="Page-1" id="NhgU1Clbsrlby51GEBpc">
    <mxGraphModel dx="1434" dy="-325" grid="1" gridSize="10" guides="1" tooltips="1" connect="1" arrows="1" fold="1" page="1" pageScale="1" pageWidth="827" pageHeight="1169" math="0" shadow="0">
      <root>
        <mxCell id="0" />
        <mxCell id="1" parent="0" />
        <mxCell id="6X_uGSzdHGrAZ-um2Fmt-1" value="" style="rounded=0;whiteSpace=wrap;html=1;fillColor=#dae8fc;strokeColor=#6c8ebf;" parent="1" vertex="1">
          <mxGeometry x="219" y="1200" width="390" height="280" as="geometry" />
        </mxCell>
        <mxCell id="6X_uGSzdHGrAZ-um2Fmt-34" style="edgeStyle=orthogonalEdgeStyle;rounded=0;orthogonalLoop=1;jettySize=auto;html=1;" parent="1" source="6X_uGSzdHGrAZ-um2Fmt-2" target="6X_uGSzdHGrAZ-um2Fmt-21" edge="1">
          <mxGeometry relative="1" as="geometry" />
        </mxCell>
        <mxCell id="qPYIzghR93FChkW-UuRX-8" style="edgeStyle=orthogonalEdgeStyle;rounded=0;orthogonalLoop=1;jettySize=auto;html=1;" edge="1" parent="1" source="6X_uGSzdHGrAZ-um2Fmt-2" target="qPYIzghR93FChkW-UuRX-4">
          <mxGeometry relative="1" as="geometry" />
        </mxCell>
        <mxCell id="6X_uGSzdHGrAZ-um2Fmt-2" value="" style="image;html=1;image=img/lib/clip_art/computers/Server_Tower_128x128.png" parent="1" vertex="1">
          <mxGeometry x="374" y="1220" width="80" height="80" as="geometry" />
        </mxCell>
        <mxCell id="6X_uGSzdHGrAZ-um2Fmt-8" value="&lt;br&gt;BD&lt;br&gt;bdactivites" style="strokeWidth=2;html=1;shape=mxgraph.flowchart.database;whiteSpace=wrap;" parent="1" vertex="1">
          <mxGeometry x="249" y="1340" width="60" height="60" as="geometry" />
        </mxCell>
        <mxCell id="6X_uGSzdHGrAZ-um2Fmt-16" style="edgeStyle=orthogonalEdgeStyle;rounded=0;orthogonalLoop=1;jettySize=auto;html=1;entryX=0.5;entryY=0;entryDx=0;entryDy=0;entryPerimeter=0;" parent="1" source="6X_uGSzdHGrAZ-um2Fmt-2" target="6X_uGSzdHGrAZ-um2Fmt-8" edge="1">
          <mxGeometry relative="1" as="geometry" />
        </mxCell>
        <mxCell id="6X_uGSzdHGrAZ-um2Fmt-21" value="&lt;br&gt;BD&lt;div&gt;proc_auth&lt;/div&gt;" style="strokeWidth=2;html=1;shape=mxgraph.flowchart.database;whiteSpace=wrap;" parent="1" vertex="1">
          <mxGeometry x="519" y="1340" width="60" height="60" as="geometry" />
        </mxCell>
        <mxCell id="6X_uGSzdHGrAZ-um2Fmt-30" value="" style="dashed=0;outlineConnect=0;html=1;align=center;labelPosition=center;verticalLabelPosition=bottom;verticalAlign=top;shape=mxgraph.weblogos.mongodb" parent="1" vertex="1">
          <mxGeometry x="539" y="1410" width="20" height="40" as="geometry" />
        </mxCell>
        <mxCell id="6X_uGSzdHGrAZ-um2Fmt-32" value="" style="image;sketch=0;aspect=fixed;html=1;points=[];align=center;fontSize=12;image=img/lib/mscae/SQL_Database_generic.svg;" parent="1" vertex="1">
          <mxGeometry x="263.79999999999995" y="1410" width="30.4" height="40" as="geometry" />
        </mxCell>
        <mxCell id="6X_uGSzdHGrAZ-um2Fmt-37" style="edgeStyle=orthogonalEdgeStyle;rounded=0;orthogonalLoop=1;jettySize=auto;html=1;exitX=0.5;exitY=1;exitDx=0;exitDy=0;" parent="1" edge="1">
          <mxGeometry relative="1" as="geometry">
            <mxPoint x="401.5" y="1470" as="sourcePoint" />
            <mxPoint x="401.5" y="1470" as="targetPoint" />
          </mxGeometry>
        </mxCell>
        <mxCell id="qPYIzghR93FChkW-UuRX-4" value="&lt;br&gt;BD&lt;br&gt;decision" style="strokeWidth=2;html=1;shape=mxgraph.flowchart.database;whiteSpace=wrap;" vertex="1" parent="1">
          <mxGeometry x="336.5" y="1340" width="60" height="60" as="geometry" />
        </mxCell>
        <mxCell id="qPYIzghR93FChkW-UuRX-5" value="" style="image;sketch=0;aspect=fixed;html=1;points=[];align=center;fontSize=12;image=img/lib/mscae/SQL_Database_generic.svg;" vertex="1" parent="1">
          <mxGeometry x="351.29999999999995" y="1410" width="30.4" height="40" as="geometry" />
        </mxCell>
        <mxCell id="qPYIzghR93FChkW-UuRX-6" value="&lt;br&gt;BD&lt;br&gt;&lt;font&gt;decision_temp&lt;/font&gt;" style="strokeWidth=2;html=1;shape=mxgraph.flowchart.database;whiteSpace=wrap;" vertex="1" parent="1">
          <mxGeometry x="426.5" y="1340" width="60" height="60" as="geometry" />
        </mxCell>
        <mxCell id="qPYIzghR93FChkW-UuRX-7" value="" style="image;sketch=0;aspect=fixed;html=1;points=[];align=center;fontSize=12;image=img/lib/mscae/SQL_Database_generic.svg;" vertex="1" parent="1">
          <mxGeometry x="441.29999999999995" y="1410" width="30.4" height="40" as="geometry" />
        </mxCell>
        <mxCell id="qPYIzghR93FChkW-UuRX-10" style="edgeStyle=orthogonalEdgeStyle;rounded=0;orthogonalLoop=1;jettySize=auto;html=1;entryX=0.5;entryY=0;entryDx=0;entryDy=0;entryPerimeter=0;" edge="1" parent="1" source="6X_uGSzdHGrAZ-um2Fmt-2" target="qPYIzghR93FChkW-UuRX-6">
          <mxGeometry relative="1" as="geometry">
            <Array as="points">
              <mxPoint x="457" y="1320" />
            </Array>
          </mxGeometry>
        </mxCell>
      </root>
    </mxGraphModel>
  </diagram>
</mxfile>
